<svg xmlns="http://www.w3.org/2000/svg" width="512" height="512" viewBox="0 0 512 512">
  <defs>
    <radialGradient id="bg3" cx="50%" cy="42%" r="65%">
      <stop offset="0%" stop-color="#16224a"/>
      <stop offset="60%" stop-color="#0b1024"/>
      <stop offset="100%" stop-color="#070a18"/>
    </radialGradient>
    <linearGradient id="pet3" x1="0" y1="0" x2="0" y2="1">
      <stop offset="0%" stop-color="#7fe3c4"/>
      <stop offset="100%" stop-color="#7aa7ff"/>
    </linearGradient>
  </defs>
  <rect width="512" height="512" rx="112" fill="url(#bg3)"/>
  <!-- lotus petals -->
  <g transform="translate(256 270)" fill="url(#pet3)" opacity="0.92">
    <path d="M0,-130 C28,-78 28,-30 0,4 C-28,-30 -28,-78 0,-130 Z"/>
    <path d="M0,-130 C28,-78 28,-30 0,4 C-28,-30 -28,-78 0,-130 Z" transform="rotate(40)" opacity="0.8"/>
    <path d="M0,-130 C28,-78 28,-30 0,4 C-28,-30 -28,-78 0,-130 Z" transform="rotate(-40)" opacity="0.8"/>
    <path d="M0,-130 C28,-78 28,-30 0,4 C-28,-30 -28,-78 0,-130 Z" transform="rotate(75)" opacity="0.6"/>
    <path d="M0,-130 C28,-78 28,-30 0,4 C-28,-30 -28,-78 0,-130 Z" transform="rotate(-75)" opacity="0.6"/>
  </g>
  <!-- gold bead at heart of lotus -->
  <circle cx="256" cy="262" r="30" fill="#e8c887"/>
  <ellipse cx="248" cy="252" rx="9" ry="6" fill="#fff7e6" opacity="0.6"/>
</svg>
